<?xml version="1.0" encoding="UTF-8"?>
<!DOCTYPE svg PUBLIC "-//W3C//DTD SVG 1.1//EN" "http://www.w3.org/Graphics/SVG/1.1/DTD/svg11.dtd">
<!-- Creator: CorelDRAW -->
<svg xmlns="http://www.w3.org/2000/svg" xml:space="preserve" width="30.5934mm" height="30.5934mm" version="1.1" style="shape-rendering:geometricPrecision; text-rendering:geometricPrecision; image-rendering:optimizeQuality; fill-rule:evenodd; clip-rule:evenodd"
viewBox="0 0 70.9 70.9"
 xmlns:xlink="http://www.w3.org/1999/xlink"
 xmlns:xodm="http://www.corel.com/coreldraw/odm/2003">
 <defs>
  <style type="text/css">
   <![CDATA[
    .fil7 {fill:none}
    .fil6 {fill:#1D4295}
    .fil5 {fill:#2D3A71}
    .fil2 {fill:#354999}
    .fil3 {fill:#363D49}
    .fil4 {fill:#495172}
    .fil1 {fill:#B42B31}
    .fil0 {fill:#F6F6F6}
   ]]>
  </style>
   <clipPath id="id0">
    <path d="M35.45 0c19.58,0 35.45,15.87 35.45,35.45 0,19.58 -15.87,35.45 -35.45,35.45 -19.58,0 -35.45,-15.87 -35.45,-35.45 0,-19.58 15.87,-35.45 35.45,-35.45z"/>
   </clipPath>
 </defs>
 <g id="Camada_x0020_1">
  <metadata id="CorelCorpID_0Corel-Layer"/>
  <g>
  </g>
  <g style="clip-path:url(#id0)">
   <g id="_2657082631136">
    <path class="fil0" d="M3.87 39.36c0.2,1.03 0.23,2.29 0.44,3.4 1.24,6.78 5.59,13.6 10.61,17.7 3.41,2.79 6.16,4.15 10.36,5.84 4.38,1.77 9.57,1.78 14.83,1.44 0.39,-0.14 2.03,-0.42 2.61,-0.57 1.01,-0.27 1.69,-0.51 2.64,-0.84l5.11 -2.08c0.13,-0.33 2.76,-2.02 3.33,-2.46 1.19,-0.92 2.25,-1.87 3.29,-2.87 1.77,-1.7 3.84,-4.76 5.08,-7.22 2.64,-5.28 3.25,-9.55 2.98,-15.51 -0.13,-2.95 -0.93,-3.63 -0.35,-5.26 -0.05,-0.04 -0.1,-0.18 -0.11,-0.15l-0.77 -1.61c-1.29,-1.23 -2.1,-6.41 -7.54,-11.25 -3.01,-2.68 -1.68,-1.58 -1.49,-4.34 -0.63,-0.67 -0.02,-0.97 -0.73,-2.89 -0.34,-0.91 -0.73,-1.59 -1.13,-2.41 -2.17,-0.07 -5.84,-4.66 -17.56,-4.62 -11.91,0.04 -22.18,7.1 -27.77,17.08 -2.74,4.89 -4.67,11.47 -3.8,18.61z"/>
    <path class="fil0" d="M24.59 49.48c2.87,1.91 3.77,4.43 10.97,5.72 7.8,1.4 12.67,-2.45 14.13,-2.52l0.11 2.69c0.81,-0.01 2.64,-0.97 3.23,-1.37 1.55,-1.04 2.05,-2 2.66,-2.31 0.49,-1.6 0.45,-14.91 0.17,-17.25 -1.7,-0.2 -17.06,-0.15 -17.83,0.12 -0.52,0.43 -0.18,6.77 -0.1,7.34l9.11 0.03c0.08,1.64 -1.96,3.01 -3.06,3.66 -4.83,2.86 -11.74,1.26 -14.04,-3.42 -2.36,-3.73 -1.36,-8.46 1.02,-11.13 1.01,-1.13 2.83,-2.37 4.44,-2.84 1.65,-0.48 5.19,-0.9 6.49,0.26 1.49,0.13 3,1.86 4.09,2.67 0.87,-0.13 7.06,-4 7.44,-4.6 -0.88,-3.07 -6.62,-5.74 -7.24,-6.22 -1.23,-0.31 -1.87,-0.78 -3.06,-1.03 -3.26,-0.68 -7.51,-0.67 -10.58,0.37 -1.79,0.61 -3.83,1.46 -5.29,2.64 -5.09,4.1 -7.96,8.77 -7.41,16.32 0.17,2.39 0.84,4.34 1.7,6.22 1.39,3.05 2.59,3.62 3.05,4.64z"/>
    <path class="fil1" d="M31.98 65c0.26,-0.22 -0.27,-0.22 0.81,-0.26 0.04,-1.2 -0.21,-0.92 0.44,-1.54 -1.43,-1.05 0.13,-0.86 -2.11,-1.44 -0.66,-0.17 -0.06,0.13 -0.45,-0.15 -5.51,-1.65 -9.37,-2.95 -13.65,-7.66 -4,-4.39 -5.94,-8.61 -6.58,-14.94 -0.46,-4.64 0.24,-9.16 1.91,-12.49 0.92,-1.83 1.32,-3 2.41,-4.63 2.07,-3.08 4.59,-5.04 7.34,-6.93 0.55,-0.38 1.38,-1.02 2.11,-1.39 14.42,-7.35 24.53,0.25 25.93,0.33 0.47,-0.77 1.07,-1.96 1.08,-2.95 -5.66,-3.91 -13.32,-4.56 -20.24,-3.61 -1.44,0.2 -2.14,0.44 -3.45,0.76 -4.2,1.03 -9.89,4.96 -12.67,7.97 -2.79,3.02 -4.84,5.6 -6.55,10.18 -4.95,13.3 0.42,27.54 11.3,34.34 3.22,2.01 7.8,4.16 12.36,4.42z"/>
    <path class="fil2" d="M21.37 53.9c0.64,-0.27 1.19,-0.25 1.99,-0.25 0.11,0.22 0.3,1.14 0.41,1.49 0.6,0.01 1.09,0 1.43,-0.18 0.47,-0.25 0.11,0.01 0.37,-0.33 0.1,-0.13 0.23,-0.54 0.28,-0.65 -0.67,-0.95 -0.18,-0.13 -1.11,-0.66 0.38,-0.94 -0.01,0.17 0.57,-0.47 0.02,-0.02 0.5,0.25 0.36,-1.05 -0.1,-0.86 -0.57,-0.91 -1.16,-1.33l0.07 -0.99c-0.47,-1.02 -1.66,-1.6 -3.05,-4.64 -0.86,-1.88 -1.52,-3.83 -1.7,-6.22 -0.55,-7.55 2.32,-12.23 7.41,-16.32 1.46,-1.17 3.5,-2.03 5.29,-2.64 3.06,-1.04 7.31,-1.05 10.58,-0.37 1.19,0.25 1.84,0.72 3.06,1.03l-0.53 -0.93c1.82,0.03 2.76,0.65 4.06,1.58 0.47,-0.28 0.57,-0.16 0.8,-0.72 -0.66,-0.09 -1.11,-0.41 -1.56,-0.73 -0.03,-0.9 0.03,-1.62 -0.38,-2.16 -0.38,-0.5 -0.97,-0.49 -1.59,-1.22 1.71,0.25 0.5,0.07 0.97,-0.19 -2.91,-0.8 -4.52,-2.01 -8.56,-2.11 -3.69,-0.09 -6.48,0.04 -9.66,1.07 -10.04,3.24 -18.09,14.13 -15.93,25.3 0.6,3.12 1.24,5.53 2.72,7.91 1.23,1.97 3.28,4.75 4.85,5.79z"/>
    <path class="fil2" d="M-0.12 41.43c0.31,-0.7 0.17,-2.15 0.16,-3.09l1.03 3.1c0.42,1.91 -0.11,2.84 1.1,4.12 0.57,0.61 0.15,-0.21 0.73,0.68l0.27 -2.54c0.29,-1.13 0.95,-1.02 0.71,-4.33 -0.87,-7.15 1.06,-13.73 3.8,-18.61 5.59,-9.97 15.86,-17.04 27.77,-17.08 11.72,-0.04 15.39,4.55 17.56,4.62 0.55,-2.23 1.86,-3.38 -0.36,-4.45 -3.63,-1.76 -5.01,-2.82 -9.47,-3.71 -8.35,-1.66 -14.93,-0.81 -22.3,2.62 -3.83,1.78 -6.84,3.87 -9.86,6.83 -4.82,4.72 -6.52,7.19 -9.27,14.01 -2.13,5.3 -2.07,8.91 -2.1,14.59 -0.01,1.41 0.22,2.16 0.22,3.25z"/>
    <path class="fil3" d="M55.68 51.71c-0.61,0.3 -1.1,1.27 -2.66,2.31 -0.59,0.39 -2.42,1.36 -3.23,1.37l-0.11 -2.69c-1.46,0.07 -6.33,3.91 -14.13,2.52 -7.19,-1.29 -8.09,-3.81 -10.97,-5.72l-0.07 0.99c0.58,0.42 1.06,0.47 1.16,1.33 0.15,1.31 -0.34,1.03 -0.36,1.05 -0.58,0.64 -0.19,-0.47 -0.57,0.47 0.92,0.53 0.44,-0.29 1.11,0.66 -0.05,0.11 -0.18,0.52 -0.28,0.65 -0.25,0.34 0.1,0.08 -0.37,0.33 -0.34,0.18 -0.83,0.19 -1.43,0.18 -0.11,-0.35 -0.3,-1.27 -0.41,-1.49 -0.8,-0 -1.35,-0.02 -1.99,0.25 3.84,4 11.96,6.44 18.39,5.88 2.49,-0.22 6.04,-1.53 6.35,-1.41 -0.61,1.09 -4.9,2.77 -6.4,3.12 -2.79,0.65 -6.18,0.56 -9.03,0.11 0.39,0.27 -0.21,-0.03 0.45,0.15 2.23,0.59 0.68,0.4 2.11,1.44 -0.65,0.62 -0.41,0.35 -0.44,1.54 -1.07,0.03 -0.55,0.04 -0.81,0.26 3.23,1.06 10.94,-0.76 14.3,-2.35 7.84,-3.69 13.4,-10.52 15.19,-19.12 0.49,-2.35 0.46,-5.53 0.24,-8.16 -0.16,-1.85 -0.98,-5.63 -1.83,-6.68l-1.18 -0.68c-0.23,0.45 0,0.4 0.18,0.88l0.22 0.75c0.55,0.84 0.11,0.05 0.41,0.18l0 1.69c-0.59,0.21 -0.38,0.14 -0.81,0.47 -0.7,-1.11 0.23,-0.29 -0.96,-0.99 -0.8,-0.47 -0.37,-0.5 -1.27,-0.56l-0 2.24c-0.62,0.37 -0.57,-0.02 -0.94,0.41 -0.74,0.85 0.13,0.77 0.15,0.79 0.55,0.63 0.28,-0.9 0.61,0.95l-0.01 11.89c0,0.88 -0.01,1.76 0.01,2.63 0.04,2.77 -0.06,2.18 -0.62,2.33z"/>
    <path class="fil4" d="M-0.12 41.43c0.3,3.94 1.91,6.99 3.17,10.05 0.47,1.14 1.01,2.01 1.62,2.99l2.73 3.86c0.41,0.43 0.71,0.66 1.08,1.12 0.76,0.95 1.25,1.43 2.1,2.29 0.52,0.52 0.66,0.58 1.19,1.01 2.15,1.73 2.6,2.19 5.19,3.81 4.2,2.63 9.99,4.41 14.92,5.06 3.86,0.51 -0.9,2.36 6.86,2.36 0,-0.16 5.9,-1.46 7.46,-2.11 0.43,-0.18 5.99,-2.78 6.51,-3.33l0.25 -0.34c-1.41,-0.36 -2.97,1.09 -6.44,1.96 -1.94,0.49 -4.89,1.07 -7.24,1.1 1.57,-0.29 0.38,0.19 0.84,-0.73l0.31 -0.58c0.38,-0.5 -0,0.01 0.34,-0.3 -0.39,-0.34 0.61,-0.33 -0.88,-0.34 0.57,-1.38 0.99,-0.75 1.71,-1.28 -0.82,-0.03 -0.99,0.1 -1.5,-0.27 -5.25,0.33 -10.44,0.33 -14.83,-1.44 -4.19,-1.69 -6.95,-3.06 -10.36,-5.84 -5.01,-4.1 -9.37,-10.92 -10.61,-17.7 -0.2,-1.11 -0.24,-2.37 -0.44,-3.4 0.24,3.31 -0.42,3.2 -0.71,4.33l-0.27 2.54c-0.58,-0.89 -0.16,-0.08 -0.73,-0.68 -1.21,-1.28 -0.68,-2.21 -1.1,-4.12l-1.03 -3.1c0.01,0.94 0.16,2.39 -0.16,3.09z"/>
    <path class="fil5" d="M46.18 20.32c0.62,0.49 6.36,3.16 7.24,6.22 -0.38,0.6 -6.56,4.47 -7.44,4.6 -1.08,-0.81 -2.6,-2.54 -4.09,-2.67l-1.07 -0.02c0.28,0.59 -0.09,0.12 0.33,0.5 1.06,0.96 1.73,0.37 1.91,1.21 0,0.02 0.01,0.08 0.01,0.1 0.13,0.46 0.09,0.03 0.4,0.59 -1.52,1.07 -1.63,-0.05 -3.48,-0.19 -0.25,0.53 -0.31,0.76 -0.42,1.42 1.33,0.03 1.9,-0.31 1.92,0.95 -1.36,0.03 -1.96,0.23 -2.91,0.59 -0.9,0.34 -1.46,0.25 -1.51,0.72l-0.09 2.08c0.18,3.31 -0.65,3.81 0.38,7.16 -0.62,-0.17 -0.57,-0.19 -1.42,-0.19 0.01,-0.27 0.05,-0.33 -0,-0.61 -0.13,-0.69 0.4,0.27 -0.26,-0.7 -0.63,-0.03 -1.06,-0.39 -1.44,1.48 0.91,0.22 0.44,-0.14 0.94,0.1l-1.24 0.35c-0.03,0.01 -0.09,0.03 -0.13,0.04 -0.03,0.01 -0.09,0.03 -0.13,0.03l-1.19 -0.33c-0.86,-0.57 -1.65,-1.69 -1.95,-2.64 -0.52,0.47 -0.32,0.01 -0.6,1.08 2.3,4.68 9.21,6.28 14.04,3.42 1.1,-0.65 3.14,-2.02 3.06,-3.66l-9.11 -0.03c-0.08,-0.57 -0.43,-6.91 0.1,-7.34 0.76,-0.27 16.12,-0.32 17.83,-0.12 0.28,2.34 0.32,15.65 -0.17,17.25 0.56,-0.15 0.66,0.44 0.62,-2.33 -0.01,-0.88 -0.01,-1.76 -0.01,-2.63l0.01 -11.89c-0.34,-1.85 -0.06,-0.33 -0.61,-0.95 -0.02,-0.03 -0.89,0.05 -0.15,-0.79 0.37,-0.43 0.32,-0.04 0.94,-0.41l0 -2.24c0.9,0.05 0.48,0.08 1.27,0.56 1.18,0.7 0.25,-0.13 0.96,0.99 0.44,-0.33 0.22,-0.26 0.81,-0.47l-0 -1.69c-0.3,-0.13 0.13,0.66 -0.41,-0.18l-0.22 -0.75c-0.18,-0.48 -0.41,-0.43 -0.18,-0.88l1.18 0.68c-0.63,-2.44 -3.37,-5.91 -5.01,-7.54 -1.12,-1.11 -2.06,-1.98 -3.29,-2.87 -0.84,-0.6 -3.15,-1.8 -3.64,-2.34 -0.47,0.26 0.74,0.44 -0.97,0.19 0.62,0.73 1.21,0.72 1.59,1.22 0.41,0.54 0.35,1.26 0.38,2.16 0.45,0.32 0.9,0.65 1.56,0.73 -0.23,0.56 -0.33,0.44 -0.8,0.72 -1.3,-0.93 -2.25,-1.55 -4.06,-1.58l0.53 0.93z"/>
    <path class="fil6" d="M29.94 42.19c0.28,-1.07 0.08,-0.61 0.6,-1.08 0.3,0.95 1.1,2.07 1.95,2.64l1.19 0.33c0.03,-0 0.09,-0.02 0.13,-0.03 0.03,-0.01 0.09,-0.03 0.13,-0.04l1.24 -0.35c-0.49,-0.24 -0.02,0.12 -0.94,-0.1 0.37,-1.87 0.8,-1.51 1.44,-1.48 0.67,0.97 0.13,0.01 0.26,0.7 0.06,0.29 0.01,0.35 0,0.61 0.85,0 0.8,0.02 1.42,0.19 -1.02,-3.35 -0.2,-3.86 -0.38,-7.16l0.09 -2.08c0.04,-0.47 0.61,-0.38 1.51,-0.72 0.96,-0.36 1.55,-0.56 2.91,-0.59 -0.02,-1.26 -0.59,-0.92 -1.92,-0.95 0.11,-0.66 0.17,-0.89 0.42,-1.42 1.85,0.14 1.95,1.26 3.48,0.19 -0.31,-0.55 -0.27,-0.13 -0.4,-0.59 -0.01,-0.02 -0.01,-0.08 -0.01,-0.1 -0.18,-0.84 -0.85,-0.25 -1.91,-1.21 -0.42,-0.38 -0.04,0.09 -0.33,-0.5l1.07 0.02c-1.3,-1.16 -4.85,-0.74 -6.49,-0.26 -1.62,0.47 -3.44,1.71 -4.44,2.84 -2.38,2.67 -3.38,7.4 -1.02,11.13z"/>
    <path class="fil2" d="M71.39 41.43c-0.31,-0.7 -0.17,-2.15 -0.16,-3.09l-1.03 3.1c-0.42,1.91 0.11,2.84 -1.1,4.12 -0.57,0.61 -0.15,-0.21 -0.73,0.68l-0.26 -2.54c-0.29,-1.13 -0.95,-1.02 -0.71,-4.33 0.87,-7.15 -1.06,-13.73 -3.8,-18.61 -5.59,-9.97 -15.86,-17.04 -27.77,-17.08 -11.72,-0.04 -15.39,4.55 -17.56,4.62 -0.55,-2.23 -1.86,-3.38 0.36,-4.45 3.63,-1.76 5.01,-2.82 9.47,-3.71 8.35,-1.66 14.93,-0.81 22.3,2.62 3.83,1.78 6.84,3.87 9.86,6.83 4.82,4.72 6.52,7.19 9.27,14.01 2.13,5.3 2.07,8.91 2.1,14.59 0.01,1.41 -0.22,2.16 -0.22,3.25z"/>
    <path class="fil4" d="M71.39 41.43c-0.3,3.94 -1.91,6.99 -3.17,10.05 -0.47,1.14 -1.01,2.01 -1.62,2.99l-2.73 3.86c-0.41,0.43 -0.71,0.66 -1.08,1.12 -0.76,0.95 -1.25,1.43 -2.1,2.29 -0.52,0.52 -0.66,0.58 -1.19,1.01 -2.15,1.73 -2.6,2.19 -5.19,3.81 -4.2,2.63 -9.99,4.41 -14.92,5.06 -3.86,0.51 0.9,2.36 -6.86,2.36 0,-0.16 -5.9,-1.46 -7.46,-2.11 -0.43,-0.18 -5.99,-2.78 -6.51,-3.33l-0.25 -0.34c1.41,-0.36 2.97,1.09 6.44,1.96 1.94,0.49 4.89,1.07 7.24,1.1 -1.57,-0.29 -0.38,0.19 -0.84,-0.73l-0.31 -0.58c-0.38,-0.5 0,0.01 -0.34,-0.3 0.39,-0.34 -0.61,-0.33 0.88,-0.34 -0.57,-1.38 -0.99,-0.75 -1.71,-1.28 0.82,-0.03 0.99,0.1 1.5,-0.27 5.25,0.33 10.44,0.33 14.82,-1.44 4.2,-1.69 6.95,-3.06 10.36,-5.84 5.01,-4.1 9.37,-10.92 10.61,-17.7 0.2,-1.11 0.24,-2.37 0.44,-3.4 -0.24,3.31 0.42,3.2 0.71,4.33l0.26 2.54c0.58,-0.89 0.16,-0.08 0.73,-0.68 1.21,-1.28 0.68,-2.21 1.1,-4.12l1.03 -3.1c-0.01,0.94 -0.16,2.39 0.16,3.09z"/>
   </g>
  </g>
  <path class="fil7" d="M35.45 0c19.58,0 35.45,15.87 35.45,35.45 0,19.58 -15.87,35.45 -35.45,35.45 -19.58,0 -35.45,-15.87 -35.45,-35.45 0,-19.58 15.87,-35.45 35.45,-35.45z"/>
 </g>
</svg>
